<mxfile host="app.diagrams.net" modified="2024-05-05T09:54:08.469Z" agent="Mozilla/5.0 (X11; Ubuntu; Linux x86_64; rv:125.0) Gecko/20100101 Firefox/125.0" etag="EvnaComFw82hHzvC1VQj" version="24.3.1" type="github">
  <diagram name="Page-1" id="mFCBEnTh9IBcUFOKiDiz">
    <mxGraphModel dx="819" dy="430" grid="1" gridSize="10" guides="1" tooltips="1" connect="1" arrows="1" fold="1" page="1" pageScale="1" pageWidth="850" pageHeight="1100" math="0" shadow="0">
      <root>
        <mxCell id="0" />
        <mxCell id="1" parent="0" />
        <mxCell id="Z_MSqwI4jhc1PmDVcm2G-1" value="End User" style="shape=umlActor;html=1;verticalLabelPosition=bottom;verticalAlign=top;align=center;" vertex="1" parent="1">
          <mxGeometry x="410" y="360" width="30" height="60" as="geometry" />
        </mxCell>
      </root>
    </mxGraphModel>
  </diagram>
</mxfile>
